<?xml version="1.0" encoding="UTF-8"?><svg width="30px" xmlns="http://www.w3.org/2000/svg" xmlns:xlink="http://www.w3.org/1999/xlink" version="1.1" id="Layer_1" x="0px" y="0px" viewBox="0 0 32 32" xml:space="preserve">
<g fill="#414753" id="Layer_4_copy_4">
<path d="M16 32c8.837 0 16-7.163 16-16S24.837 0 16 0 0 7.163 0 16s7.163 16 16 16zM16 .75C24.409.75 31.25 7.591 31.25 16S24.409 
31.25 16 31.25.75 24.409.75 16 7.591.75 16 .75z"/>
<path fill="#414753" d="M16 29.57c7.495 0 13.57-6.076 13.57-13.57 0-7.495-6.076-13.57-13.57-13.57C8.505 2.43 2.43 8.505 2.43 
16S8.505 29.57 16 29.57zm0-26.39c7.069 0 12.82 5.751 12.82 12.82S23.069 28.82 16 28.82 3.18 23.069 3.18 16 8.931 3.18 16 3.18z"/>
<path fill="#00adbd" d="M9.384 18.62s.524.524 1.048 1.572c0 0 .8 2.189 3.668 1.572.006.853 0 2.096 0 2.096h4.189v-3.668c0-.414-.229-1.316-.524-1.572 2.289-.258 4.192-1.572 
4.192-4.192s-.524-3.144-1.048-3.668c.106-.258.544-1.213-.016-2.62 0 0-1.032 0-2.08 1.572-.519-.519-2.096-.524-2.619-.524-.524 0-2.101.005-2.62.524-1.048-1.572-2.078-1.572-2.078-1.572-.561 1.407-.122 2.362-.016 2.62-.524.524-1.05 1.048-1.05 3.668s1.905 3.934 4.194 4.192c-.294.256-.524 1.048-.524 1.572-.588.262-2.224.513-3.144-1.048 0 0-.524-1.048-1.572-1.048 0 0-1.048-.099 0 .524z"/></g>
</svg>