<?xml version="1.0" encoding="UTF-8" ?>
<!DOCTYPE svg PUBLIC "-//W3C//DTD SVG 1.1//EN" "http://www.w3.org/Graphics/SVG/1.1/DTD/svg11.dtd">
<svg id="weather34 TPLINK MR3030" width="1024pt" height="852pt" viewBox="0 0 1024 852" version="2" xmlns="http://www.w3.org/2000/svg">
<g fill="#bfbfbf">
<path   d=" M 95.04 141.94 C 94.65 132.31 103.80 124.49 112.95 123.97 C 378.65 123.98 644.35 123.98 910.04 123.97 C 919.19 124.48 928.35 132.31 927.96 141.93 C 927.95 340.30 928.01 538.69 927.93 737.05 C 927.76 737.59 927.41 738.66 927.24 739.20 C 927.87 728.81 927.42 718.40 927.55 708.00 C 927.54 520.98 927.55 333.95 927.54 146.93 C 927.43 142.47 926.43 137.86 923.68 134.24 C 919.92 129.01 913.42 126.25 907.06 126.38 C 643.36 126.38 379.65 126.38 115.94 126.38 C 108.60 126.16 101.12 130.05 97.77 136.71 C 94.44 143.29 95.60 150.90 95.43 158.00 C 95.46 333.00 95.43 508.00 95.44 683.00 C 95.57 701.77 95.16 720.55 95.71 739.31 C 95.37 738.20 95.14 737.07 95.02 735.93 C 95.05 537.94 95.01 339.94 95.04 141.94 Z" />
<path   d=" M 231.45 181.46 C 234.66 180.49 239.67 181.79 239.53 185.87 C 239.27 190.77 232.26 191.48 229.14 188.85 C 226.60 186.58 228.07 181.91 231.45 181.46 M 230.28 183.86 C 230.14 184.72 229.86 186.43 229.73 187.29 C 232.79 188.13 236.01 188.08 238.59 186.01 C 236.50 183.42 233.29 183.44 230.28 183.86 Z" />
<path   d=" M 191.70 203.71 C 202.09 196.29 212.46 188.82 222.95 181.54 C 223.03 186.25 223.04 190.96 222.92 195.67 C 215.06 201.08 207.31 206.66 199.56 212.21 C 201.74 213.99 203.64 216.41 206.36 217.36 C 211.89 217.80 217.46 217.37 223.00 217.54 C 223.00 221.46 223.00 225.37 222.99 229.29 C 204.21 229.32 185.44 229.33 166.66 229.29 C 166.62 225.37 166.62 221.46 166.65 217.55 C 175.23 217.43 183.81 217.64 192.39 217.42 C 184.01 210.05 175.20 203.18 166.65 196.01 C 166.62 191.72 166.59 187.43 166.74 183.14 C 175.24 189.77 183.30 196.96 191.70 203.71 Z" />
<path   d=" M 230.34 191.28 C 233.08 191.02 234.87 193.70 236.89 195.14 C 237.45 193.43 238.10 191.75 239.01 190.20 C 239.41 193.39 239.38 196.61 239.15 199.81 C 235.94 197.70 233.70 193.98 229.65 193.39 C 230.21 195.39 230.91 197.35 231.67 199.28 C 230.59 198.98 229.51 198.68 228.43 198.38 C 228.06 195.95 227.15 192.18 230.34 191.28 Z" />
<path   d=" M 231.45 208.46 C 234.66 207.49 239.66 208.79 239.53 212.87 C 239.27 217.77 232.25 218.48 229.13 215.84 C 226.60 213.57 228.07 208.90 231.45 208.46 M 230.29 210.84 C 230.15 211.70 229.87 213.43 229.73 214.29 C 232.92 215.10 236.69 215.46 238.53 212.08 C 235.97 210.74 233.12 210.48 230.29 210.84 Z" />
<path   d=" M 228.72 219.73 C 231.72 219.37 234.77 219.26 237.79 219.14 C 240.97 221.48 239.56 226.33 236.27 227.83 C 236.57 225.38 237.04 222.94 237.26 220.48 C 235.89 221.59 234.68 222.89 233.63 224.30 C 232.47 223.17 231.27 222.07 230.04 221.02 C 230.26 223.25 230.61 225.46 230.85 227.68 C 228.07 225.97 226.92 222.62 228.72 219.73 Z" />
<path   d=" M 233.62 229.17 C 235.76 229.88 237.95 229.00 240.09 228.73 C 238.50 230.68 236.61 232.33 234.76 234.02 C 236.64 234.64 238.68 235.13 240.02 236.73 C 235.99 237.17 231.93 237.09 227.89 237.03 C 228.12 234.59 227.77 231.95 228.85 229.68 C 229.89 227.78 232.00 228.95 233.62 229.17 M 230.17 231.19 C 230.14 232.43 230.12 233.67 230.10 234.92 C 231.36 234.73 232.62 234.54 233.88 234.34 C 233.56 233.23 233.24 232.13 232.92 231.03 C 232.23 231.07 230.86 231.15 230.17 231.19 Z" />
<path   d=" M 166.65 238.56 C 185.43 238.51 204.22 238.52 223.00 238.56 C 222.85 241.85 223.50 245.30 222.55 248.49 C 210.48 257.53 197.95 265.99 185.81 274.94 C 198.20 275.11 210.60 274.97 223.00 275.01 C 223.00 278.77 223.00 282.53 222.99 286.29 C 204.21 286.32 185.43 286.33 166.65 286.29 C 167.16 282.54 164.97 277.28 168.86 274.86 C 180.32 266.52 192.02 258.49 203.36 249.97 C 191.13 249.67 178.90 249.91 166.67 249.84 C 166.62 246.08 166.62 242.32 166.65 238.56 Z" />
<path   d=" M 227.97 239.16 C 231.72 239.11 235.48 239.12 239.25 239.10 C 239.27 239.62 239.32 240.65 239.34 241.16 C 237.05 241.20 234.76 241.24 232.47 241.33 C 235.00 242.57 237.57 243.71 240.06 245.04 C 237.58 246.44 234.99 247.61 232.44 248.87 C 234.74 248.95 237.04 248.99 239.34 249.04 C 239.33 249.55 239.30 250.57 239.29 251.07 C 235.50 251.07 231.72 251.07 227.93 250.97 C 227.99 250.30 228.12 248.95 228.18 248.27 C 230.74 247.27 233.30 246.23 235.81 245.11 C 233.27 243.94 230.70 242.89 228.11 241.84 C 228.08 241.17 228.00 239.83 227.97 239.16 Z" />
<path   d=" M 236.43 284.54 C 237.53 285.63 239.40 286.39 239.47 288.16 C 239.87 290.10 238.33 291.60 237.36 293.09 C 237.36 291.12 237.48 289.15 237.55 287.18 C 236.10 289.47 234.82 292.13 231.92 292.82 C 230.91 290.12 230.36 287.22 232.68 285.02 C 232.76 286.90 232.77 288.79 232.83 290.68 C 234.04 288.64 235.17 286.55 236.43 284.54 Z" />
<path   d=" M 233.35 293.20 C 235.22 292.61 237.38 293.01 238.87 294.31 C 239.29 295.66 239.04 297.09 239.01 298.47 C 240.41 299.09 241.80 299.77 242.79 301.00 C 238.90 301.35 234.99 301.28 231.08 301.24 C 231.63 298.56 229.80 294.19 233.35 293.20 M 232.54 297.96 C 234.00 298.49 235.50 298.87 237.00 299.27 C 237.11 298.31 237.32 296.39 237.43 295.44 C 235.39 295.48 232.69 295.19 232.54 297.96 Z" />
<path   d=" M 166.65 295.55 C 185.43 295.49 204.22 295.50 223.00 295.54 C 223.00 299.46 223.00 303.37 222.99 307.29 C 204.21 307.32 185.43 307.33 166.66 307.29 C 166.62 303.37 166.62 299.46 166.65 295.55 Z" />
<path   d=" M 231.38 303.53 C 233.68 303.26 236.19 302.53 238.38 303.70 C 239.85 305.91 239.03 308.72 239.19 311.20 C 235.22 311.22 231.24 311.33 227.29 310.90 C 228.38 309.75 229.78 309.03 231.22 308.41 C 231.22 306.78 231.28 305.15 231.38 303.53 M 233.05 306.26 C 231.47 308.81 235.28 308.43 236.79 309.14 C 236.97 308.22 237.33 306.37 237.52 305.45 C 236.07 305.71 234.10 304.99 233.05 306.26 Z" />
<path   d=" M 227.97 313.16 C 231.73 313.11 235.48 313.12 239.25 313.10 C 239.27 313.62 239.31 314.65 239.34 315.16 C 237.05 315.20 234.76 315.24 232.48 315.33 C 235.00 316.57 237.57 317.71 240.06 319.03 C 237.58 320.44 234.99 321.61 232.44 322.87 C 234.74 322.95 237.03 322.99 239.34 323.04 C 239.32 323.55 239.30 324.57 239.29 325.07 C 235.50 325.07 231.72 325.07 227.93 324.97 C 227.99 324.30 228.11 322.95 228.17 322.28 C 230.74 321.27 233.29 320.23 235.81 319.11 C 233.27 317.94 230.69 316.88 228.11 315.84 C 228.07 315.17 228.00 313.83 227.97 313.16 Z" />
<path   d=" M 213.23 314.89 C 216.48 314.86 219.73 314.86 222.99 314.86 C 223.01 327.01 223.00 339.15 222.99 351.29 C 204.21 351.32 185.43 351.33 166.66 351.29 C 166.62 347.37 166.62 343.46 166.65 339.55 C 182.15 339.49 197.65 339.50 213.14 339.54 C 213.32 331.32 213.20 323.11 213.23 314.89 Z" />
<path   d=" M 231.46 326.46 C 234.71 325.48 239.80 326.82 239.52 331.01 C 239.18 335.59 232.97 336.25 229.75 334.32 C 226.50 332.40 227.73 326.91 231.46 326.46 M 229.58 329.07 C 230.03 330.58 230.11 332.97 232.28 332.82 C 234.85 333.60 237.07 332.10 238.53 330.10 C 235.76 328.55 232.62 328.45 229.58 329.07 Z" />
<path   d=" M 234.58 336.67 C 237.19 335.87 239.87 338.33 239.54 341.00 C 239.81 343.28 237.55 344.40 236.08 345.63 C 236.47 343.45 237.03 341.30 237.51 339.14 C 236.59 339.15 234.76 339.17 233.84 339.18 C 234.11 341.08 234.42 342.98 234.73 344.88 C 232.53 344.74 230.33 344.60 228.13 344.48 C 228.04 341.77 228.08 339.05 228.37 336.36 C 229.90 337.85 230.05 339.95 230.20 341.97 C 230.51 342.27 231.13 342.88 231.45 343.18 C 232.21 340.95 231.63 337.30 234.58 336.67 Z" />
<path   d=" M 170.73 364.73 C 178.25 355.12 195.38 355.63 201.93 366.11 C 206.31 372.74 205.04 381.03 205.24 388.54 C 211.16 388.50 217.08 388.50 223.00 388.54 C 223.00 392.46 223.00 396.37 222.99 400.29 C 204.21 400.32 185.44 400.33 166.66 400.29 C 166.64 392.86 166.58 385.42 166.65 378.00 C 166.69 373.31 167.73 368.44 170.73 364.73 M 177.83 373.83 C 175.20 378.24 176.12 383.65 176.03 388.55 C 182.67 388.49 189.32 388.49 195.97 388.55 C 195.95 384.29 196.41 379.89 195.11 375.77 C 192.79 368.77 181.78 367.96 177.83 373.83 Z" />
<path   d=" M 166.66 406.72 C 169.88 406.70 173.11 406.70 176.33 406.73 C 176.38 412.14 176.38 417.55 176.33 422.96 C 191.89 423.11 207.44 422.99 223.00 423.03 C 223.00 426.97 223.00 430.91 222.98 434.85 C 207.44 434.87 191.89 434.76 176.34 434.91 C 176.37 440.31 176.37 445.71 176.33 451.11 C 173.11 451.12 169.88 451.12 166.66 451.11 C 166.61 436.32 166.61 421.52 166.66 406.72 Z" />
<path   d=" M 767.32 707.89 C 767.95 707.95 769.21 708.06 769.84 708.12 C 770.35 710.85 770.88 713.58 771.49 716.31 C 772.42 713.27 773.17 710.18 774.29 707.21 C 776.68 709.62 776.88 713.15 777.79 716.24 C 778.95 713.20 778.24 708.69 781.95 707.45 C 781.28 711.71 780.43 716.00 778.87 720.04 C 778.47 720.03 777.66 720.00 777.26 719.98 C 776.12 717.59 775.49 714.99 774.57 712.52 C 773.87 714.96 773.23 717.43 772.61 719.90 C 772.03 719.92 770.87 719.96 770.29 719.98 C 769.31 715.94 768.30 711.92 767.32 707.89 Z" />
<path   d=" M 783.27 707.88 C 785.36 707.99 787.51 707.89 789.58 708.42 C 792.35 709.59 792.62 714.53 789.53 715.50 C 787.53 716.29 785.88 717.57 785.04 719.59 C 784.60 719.75 783.73 720.05 783.30 720.20 C 783.25 716.09 783.26 711.99 783.27 707.88 M 785.82 709.40 C 785.70 711.10 785.61 712.81 785.53 714.53 C 786.54 714.31 788.56 713.87 789.56 713.66 C 789.13 711.55 787.98 709.92 785.82 709.40 Z" />
<path   d=" M 793.55 713.25 C 792.13 710.81 794.26 707.69 797.02 707.87 C 799.48 707.35 800.84 709.55 802.15 711.22 C 799.84 710.77 797.56 710.27 795.24 709.97 C 796.02 713.88 803.12 712.96 801.73 717.60 C 800.07 721.61 794.09 720.55 792.37 717.06 C 794.82 717.35 797.27 717.79 799.75 717.98 C 798.65 715.29 795.70 714.76 793.55 713.25 Z" />
<path   d=" M 805.59 710.66 C 805.88 709.16 807.01 708.14 808.22 707.34 C 806.85 712.62 806.85 719.10 802.68 723.06 C 803.16 718.83 804.32 714.71 805.59 710.66 Z" />
<path   d=" M 809.26 707.89 C 812.09 708.27 816.32 707.10 817.76 710.39 C 817.87 712.27 817.01 714.03 816.76 715.88 C 816.94 717.50 817.40 719.06 817.68 720.69 C 815.54 719.27 814.08 717.15 812.54 715.17 C 812.09 716.74 811.69 718.34 811.32 719.94 C 810.81 719.96 809.78 720.00 809.27 720.03 C 809.26 715.98 809.26 711.93 809.26 707.89 M 811.59 709.86 C 811.60 711.26 811.61 712.68 811.64 714.10 C 812.53 713.99 814.31 713.76 815.20 713.65 C 815.22 712.51 815.24 711.38 815.26 710.26 C 814.34 710.16 812.51 709.96 811.59 709.86 Z" />
<path   d=" M 828.83 711.09 C 829.19 707.21 833.72 707.94 836.43 708.41 C 836.69 709.55 836.97 710.71 837.25 711.87 C 835.54 711.14 833.86 710.38 832.16 709.68 C 831.85 710.23 831.23 711.32 830.92 711.86 C 833.32 713.11 838.48 713.50 837.46 717.35 C 836.09 721.57 829.85 720.66 828.10 717.14 C 830.58 717.39 833.05 717.77 835.56 717.86 C 834.41 714.40 828.45 715.16 828.83 711.09 Z" />
<path   d=" M 847.71 708.94 C 850.03 706.80 854.05 708.50 857.01 708.29 C 855.72 709.15 854.39 709.93 853.04 710.69 C 853.01 713.79 852.99 716.90 852.98 720.01 C 852.39 720.01 851.22 720.01 850.63 720.00 C 850.61 716.92 850.60 713.84 850.70 710.77 C 849.40 710.53 848.40 709.92 847.71 708.94 Z" />
<path   d=" M 920.20 748.36 C 922.25 745.92 924.29 743.49 926.42 741.12 C 925.02 744.03 922.77 746.44 920.20 748.36 Z" />
</g>
<g fill="#2f2f2f">
<path   d=" M 97.77 136.71 C 101.12 130.05 108.60 126.16 115.94 126.38 C 379.65 126.38 643.36 126.38 907.06 126.38 C 913.42 126.25 919.92 129.01 923.68 134.24 C 926.43 137.86 927.43 142.47 927.54 146.93 C 927.55 333.95 927.54 520.98 927.55 708.00 C 927.42 718.40 927.87 728.81 927.24 739.20 C 927.04 739.68 926.63 740.64 926.42 741.12 C 924.29 743.49 922.25 745.92 920.20 748.36 C 916.78 751.07 912.33 752.08 908.05 752.17 C 738.04 752.18 568.02 752.17 398.00 752.17 C 302.25 752.11 206.49 752.31 110.73 752.08 C 104.16 750.54 97.66 746.02 95.71 739.31 C 95.16 720.55 95.57 701.77 95.44 683.00 C 95.43 508.00 95.46 333.00 95.43 158.00 C 95.60 150.90 94.44 143.29 97.77 136.71 M 231.45 181.46 C 228.07 181.91 226.60 186.58 229.14 188.85 C 232.26 191.48 239.27 190.77 239.53 185.87 C 239.67 181.79 234.66 180.49 231.45 181.46 M 191.70 203.71 C 183.30 196.96 175.24 189.77 166.74 183.14 C 166.59 187.43 166.62 191.72 166.65 196.01 C 175.20 203.18 184.01 210.05 192.39 217.42 C 183.81 217.64 175.23 217.43 166.65 217.55 C 166.62 221.46 166.62 225.37 166.66 229.29 C 185.44 229.33 204.21 229.32 222.99 229.29 C 223.00 225.37 223.00 221.46 223.00 217.54 C 217.46 217.37 211.89 217.80 206.36 217.36 C 203.64 216.41 201.74 213.99 199.56 212.21 C 207.31 206.66 215.06 201.08 222.92 195.67 C 223.04 190.96 223.03 186.25 222.95 181.54 C 212.46 188.82 202.09 196.29 191.70 203.71 M 230.34 191.28 C 227.15 192.18 228.06 195.95 228.43 198.38 C 229.51 198.68 230.59 198.98 231.67 199.28 C 230.91 197.35 230.21 195.39 229.65 193.39 C 233.70 193.98 235.94 197.70 239.15 199.81 C 239.38 196.61 239.41 193.39 239.01 190.20 C 238.10 191.75 237.45 193.43 236.89 195.14 C 234.87 193.70 233.08 191.02 230.34 191.28 M 233.98 200.23 C 233.82 202.18 233.72 204.14 233.63 206.10 C 234.26 206.05 235.51 205.93 236.14 205.87 C 235.77 203.87 236.18 201.27 233.98 200.23 M 231.45 208.46 C 228.07 208.90 226.60 213.57 229.13 215.84 C 232.25 218.48 239.27 217.77 239.53 212.87 C 239.66 208.79 234.66 207.49 231.45 208.46 M 228.72 219.73 C 226.92 222.62 228.07 225.97 230.85 227.68 C 230.61 225.46 230.26 223.25 230.04 221.02 C 231.27 222.07 232.47 223.17 233.63 224.30 C 234.68 222.89 235.89 221.59 237.26 220.48 C 237.04 222.94 236.57 225.38 236.27 227.83 C 239.56 226.33 240.97 221.48 237.79 219.14 C 234.77 219.26 231.72 219.37 228.72 219.73 M 233.62 229.17 C 232.00 228.95 229.89 227.78 228.85 229.68 C 227.77 231.95 228.12 234.59 227.89 237.03 C 231.93 237.09 235.99 237.17 240.02 236.73 C 238.68 235.13 236.64 234.64 234.76 234.02 C 236.61 232.33 238.50 230.68 240.09 228.73 C 237.95 229.00 235.76 229.88 233.62 229.17 M 166.65 238.56 C 166.62 242.32 166.62 246.08 166.67 249.84 C 178.90 249.91 191.13 249.67 203.36 249.97 C 192.02 258.49 180.32 266.52 168.86 274.86 C 164.97 277.28 167.16 282.54 166.65 286.29 C 185.43 286.33 204.21 286.32 222.99 286.29 C 223.00 282.53 223.00 278.77 223.00 275.01 C 210.60 274.97 198.20 275.11 185.81 274.94 C 197.95 265.99 210.48 257.53 222.55 248.49 C 223.50 245.30 222.85 241.85 223.00 238.56 C 204.22 238.52 185.43 238.51 166.65 238.56 M 227.97 239.16 C 228.00 239.83 228.08 241.17 228.11 241.84 C 230.70 242.89 233.27 243.94 235.81 245.11 C 233.30 246.23 230.74 247.27 228.18 248.27 C 228.12 248.95 227.99 250.30 227.93 250.97 C 231.72 251.07 235.50 251.07 239.29 251.07 C 239.30 250.57 239.33 249.55 239.34 249.04 C 237.04 248.99 234.74 248.95 232.44 248.87 C 234.99 247.61 237.58 246.44 240.06 245.04 C 237.57 243.71 235.00 242.57 232.47 241.33 C 234.76 241.24 237.05 241.20 239.34 241.16 C 239.32 240.65 239.27 239.62 239.25 239.10 C 235.48 239.12 231.72 239.11 227.97 239.16 M 233.98 252.23 C 233.82 254.18 233.72 256.14 233.63 258.11 C 234.26 258.05 235.51 257.93 236.14 257.87 C 235.77 255.87 236.18 253.28 233.98 252.23 M 236.63 264.67 C 233.63 264.66 230.62 264.63 227.64 264.94 C 227.80 265.40 228.12 266.34 228.28 266.80 C 231.91 267.60 235.70 266.86 239.40 267.03 C 239.37 264.36 239.29 261.69 238.98 259.04 C 237.85 260.76 237.18 262.71 236.63 264.67 M 228.19 268.19 C 227.71 271.28 228.08 274.43 228.41 277.52 C 229.24 276.19 229.98 274.81 230.70 273.41 C 233.56 273.39 236.43 273.37 239.30 273.36 C 239.31 272.77 239.33 271.59 239.34 271.00 C 236.42 270.99 233.51 270.98 230.60 271.00 C 229.86 270.02 229.97 267.51 228.19 268.19 M 233.98 278.24 C 233.82 280.18 233.72 282.14 233.63 284.11 C 234.26 284.05 235.51 283.93 236.13 283.87 C 235.77 281.87 236.19 279.27 233.98 278.24 M 236.43 284.54 C 235.17 286.55 234.04 288.64 232.83 290.68 C 232.77 288.79 232.76 286.90 232.68 285.02 C 230.36 287.22 230.91 290.12 231.92 292.82 C 234.82 292.13 236.10 289.47 237.55 287.18 C 237.48 289.15 237.36 291.12 237.36 293.09 C 238.33 291.60 239.87 290.10 239.47 288.16 C 239.40 286.39 237.53 285.63 236.43 284.54 M 233.35 293.20 C 229.80 294.19 231.63 298.56 231.08 301.24 C 234.99 301.28 238.90 301.35 242.79 301.00 C 241.80 299.77 240.41 299.09 239.01 298.47 C 239.04 297.09 239.29 295.66 238.87 294.31 C 237.38 293.01 235.22 292.61 233.35 293.20 M 166.65 295.55 C 166.62 299.46 166.62 303.37 166.66 307.29 C 185.43 307.33 204.21 307.32 222.99 307.29 C 223.00 303.37 223.00 299.46 223.00 295.54 C 204.22 295.50 185.43 295.49 166.65 295.55 M 231.38 303.53 C 231.28 305.15 231.22 306.78 231.22 308.41 C 229.78 309.03 228.38 309.75 227.29 310.90 C 231.24 311.33 235.22 311.22 239.19 311.20 C 239.03 308.72 239.85 305.91 238.38 303.70 C 236.19 302.53 233.68 303.26 231.38 303.53 M 227.97 313.16 C 228.00 313.83 228.07 315.17 228.11 315.84 C 230.69 316.88 233.27 317.94 235.81 319.11 C 233.29 320.23 230.74 321.27 228.17 322.28 C 228.11 322.95 227.99 324.30 227.93 324.97 C 231.72 325.07 235.50 325.07 239.29 325.07 C 239.30 324.57 239.32 323.55 239.34 323.04 C 237.03 322.99 234.74 322.95 232.44 322.87 C 234.99 321.61 237.58 320.44 240.06 319.03 C 237.57 317.71 235.00 316.57 232.48 315.33 C 234.76 315.24 237.05 315.20 239.34 315.16 C 239.31 314.65 239.27 313.62 239.25 313.10 C 235.48 313.12 231.73 313.11 227.97 313.16 M 213.23 314.89 C 213.20 323.11 213.32 331.32 213.14 339.54 C 197.65 339.50 182.15 339.49 166.65 339.55 C 166.62 343.46 166.62 347.37 166.66 351.29 C 185.43 351.33 204.21 351.32 222.99 351.29 C 223.00 339.15 223.01 327.01 222.99 314.86 C 219.73 314.86 216.48 314.86 213.23 314.89 M 231.46 326.46 C 227.73 326.91 226.50 332.40 229.75 334.32 C 232.97 336.25 239.18 335.59 239.52 331.01 C 239.80 326.82 234.71 325.48 231.46 326.46 M 234.58 336.67 C 231.63 337.30 232.21 340.95 231.45 343.18 C 231.13 342.88 230.51 342.27 230.20 341.97 C 230.05 339.95 229.90 337.85 228.37 336.36 C 228.08 339.05 228.04 341.77 228.13 344.48 C 230.33 344.60 232.53 344.74 234.73 344.88 C 234.42 342.98 234.11 341.08 233.84 339.18 C 234.76 339.17 236.59 339.15 237.51 339.14 C 237.03 341.30 236.47 343.45 236.08 345.63 C 237.55 344.40 239.81 343.28 239.54 341.00 C 239.87 338.33 237.19 335.87 234.58 336.67 M 227.50 348.15 C 228.14 350.52 229.42 352.64 231.52 353.99 C 231.26 352.74 230.97 351.51 230.66 350.28 C 233.55 350.40 236.43 350.41 239.32 350.43 C 239.32 349.82 239.32 348.60 239.33 347.99 C 235.38 347.99 231.44 347.94 227.50 348.15 M 170.73 364.73 C 167.73 368.44 166.69 373.31 166.65 378.00 C 166.58 385.42 166.64 392.86 166.66 400.29 C 185.44 400.33 204.21 400.32 222.99 400.29 C 223.00 396.37 223.00 392.46 223.00 388.54 C 217.08 388.50 211.16 388.50 205.24 388.54 C 205.04 381.03 206.31 372.74 201.93 366.11 C 195.38 355.63 178.25 355.12 170.73 364.73 M 607.06 397.75 C 606.91 416.49 606.93 435.23 607.05 453.98 C 610.72 454.02 614.39 454.03 618.07 453.98 C 618.13 451.73 618.20 449.49 618.25 447.25 C 620.28 449.39 622.23 451.75 624.91 453.12 C 630.58 455.83 637.93 454.90 642.48 450.48 C 646.63 446.63 648.17 440.84 648.52 435.37 C 648.85 429.05 647.89 422.24 643.86 417.15 C 639.90 412.01 632.47 410.26 626.46 412.39 C 623.09 413.59 620.68 416.36 618.21 418.81 C 618.45 411.79 618.49 404.77 618.20 397.75 C 614.49 397.64 610.77 397.64 607.06 397.75 M 728.29 397.87 C 728.33 404.59 728.39 411.31 728.23 418.03 C 725.22 415.45 722.18 412.43 718.10 411.76 C 711.14 410.37 703.61 414.20 700.72 420.71 C 697.28 428.38 697.34 437.62 700.69 445.32 C 703.48 451.99 711.19 455.79 718.21 454.33 C 722.21 453.65 725.25 450.76 728.21 448.21 C 728.29 450.09 728.37 451.97 728.45 453.86 C 732.22 454.00 735.99 454.02 739.77 453.94 C 739.75 435.24 739.77 416.53 739.75 397.82 C 735.93 397.61 732.10 397.62 728.29 397.87 M 775.29 397.87 C 775.33 404.59 775.40 411.31 775.23 418.03 C 772.22 415.45 769.18 412.43 765.10 411.76 C 758.14 410.37 750.60 414.19 747.72 420.71 C 744.29 428.38 744.34 437.62 747.69 445.31 C 750.48 451.99 758.19 455.79 765.21 454.33 C 769.21 453.65 772.25 450.76 775.21 448.21 C 775.29 450.09 775.37 451.97 775.45 453.86 C 779.22 454.00 782.99 454.01 786.76 453.94 C 786.75 435.24 786.77 416.53 786.76 397.82 C 782.93 397.61 779.11 397.62 775.29 397.87 M 867.29 397.87 C 867.33 404.59 867.39 411.31 867.23 418.04 C 864.22 415.45 861.18 412.43 857.10 411.76 C 850.14 410.37 842.60 414.19 839.73 420.70 C 836.29 428.37 836.34 437.62 839.69 445.31 C 842.38 451.72 849.60 455.52 856.42 454.47 C 860.75 454.00 864.08 450.95 867.21 448.21 C 867.29 450.09 867.37 451.97 867.45 453.86 C 871.22 454.00 874.99 454.02 878.77 453.94 C 878.74 435.24 878.78 416.53 878.75 397.82 C 874.93 397.60 871.10 397.62 867.29 397.87 M 581.96 402.41 C 581.81 405.55 581.73 408.70 581.68 411.85 C 579.74 411.99 577.81 412.13 575.88 412.27 C 575.88 415.03 575.90 417.79 575.95 420.55 C 577.87 420.71 579.81 420.87 581.74 421.05 C 581.84 428.38 581.58 435.72 581.79 443.05 C 581.88 446.42 582.69 450.30 585.85 452.13 C 590.36 454.77 595.84 454.06 600.83 453.91 C 600.84 451.18 600.84 448.45 600.83 445.73 C 598.16 445.12 593.46 445.63 593.39 441.79 C 592.80 434.84 593.31 427.84 593.19 420.87 C 595.75 420.78 598.31 420.71 600.88 420.64 C 600.89 417.83 600.90 415.02 600.92 412.22 C 598.36 412.13 595.80 412.05 593.25 411.96 C 593.18 408.77 593.09 405.58 592.94 402.40 C 589.27 402.44 585.61 402.44 581.96 402.41 M 166.66 406.72 C 166.61 421.52 166.61 436.32 166.66 451.11 C 169.88 451.12 173.11 451.12 176.33 451.11 C 176.37 445.71 176.37 440.31 176.34 434.91 C 191.89 434.76 207.44 434.87 222.98 434.85 C 223.00 430.91 223.00 426.97 223.00 423.03 C 207.44 422.99 191.89 423.11 176.33 422.96 C 176.38 417.55 176.38 412.14 176.33 406.73 C 173.11 406.70 169.88 406.70 166.66 406.72 M 397.77 416.80 C 393.61 421.51 394.33 429.78 399.65 433.33 C 405.00 437.08 411.93 436.66 417.75 439.26 C 420.00 440.07 420.46 443.19 418.88 444.84 C 416.92 446.83 413.84 447.02 411.22 446.74 C 407.86 446.46 406.38 442.90 403.65 441.46 C 400.38 440.96 397.05 441.27 393.75 441.33 C 394.78 445.62 396.76 450.04 400.92 452.11 C 408.26 455.89 417.70 455.91 424.95 451.91 C 431.03 448.68 433.44 439.59 428.70 434.29 C 423.09 429.01 414.66 430.05 408.04 426.90 C 405.80 425.98 405.45 422.75 407.13 421.14 C 409.01 419.29 411.93 419.01 414.42 419.47 C 417.46 420.06 418.64 423.51 421.26 424.78 C 424.28 425.26 427.35 424.95 430.40 424.87 C 429.61 421.87 428.96 418.60 426.69 416.33 C 422.94 412.40 417.24 411.17 412.00 411.25 C 406.84 411.34 401.24 412.74 397.77 416.80 M 447.84 418.93 C 447.77 416.67 447.71 414.40 447.67 412.14 C 444.04 412.11 440.42 412.11 436.79 412.11 C 436.63 426.07 436.66 440.03 436.77 453.98 C 440.54 454.01 444.30 454.01 448.07 453.98 C 448.39 445.05 447.67 436.08 448.39 427.18 C 448.64 422.01 455.01 419.14 459.23 421.84 C 461.97 423.52 462.03 427.09 462.15 429.94 C 462.22 437.95 462.07 445.96 462.14 453.97 C 465.78 454.00 469.42 454.00 473.07 453.99 C 473.46 444.79 472.52 435.52 473.52 426.37 C 474.17 421.24 481.01 419.18 484.81 422.27 C 487.00 424.15 486.98 427.30 487.14 429.94 C 487.23 437.96 487.07 445.97 487.14 453.98 C 490.97 454.01 494.79 454.00 498.62 453.91 C 498.49 444.92 498.61 435.92 498.58 426.93 C 498.59 423.01 497.95 418.82 495.24 415.80 C 491.28 411.08 484.09 410.36 478.67 412.71 C 475.56 414.05 473.60 416.94 471.64 419.56 C 469.78 415.41 466.33 411.62 461.47 411.50 C 455.72 410.56 450.83 414.41 447.84 418.93 M 510.59 415.59 C 507.69 417.83 506.67 421.49 505.71 424.85 C 508.73 424.94 511.78 425.25 514.79 424.79 C 517.48 423.62 519.03 420.47 522.07 419.94 C 524.75 419.53 528.03 419.94 529.75 422.29 C 530.83 424.21 530.83 426.50 531.23 428.63 C 523.92 429.40 515.95 428.49 509.37 432.35 C 503.51 435.69 502.57 444.31 506.59 449.42 C 510.44 454.49 517.81 455.73 523.59 453.61 C 526.55 452.54 528.79 450.21 531.03 448.10 C 531.09 450.05 531.15 452.01 531.21 453.98 C 534.84 454.00 538.48 454.00 542.12 453.99 C 542.09 443.99 542.43 433.97 542.00 423.98 C 541.77 417.92 536.56 413.31 530.93 412.04 C 524.12 410.46 516.19 411.01 510.59 415.59 M 566.65 412.48 C 564.23 413.77 562.66 416.10 560.90 418.11 C 560.79 416.12 560.71 414.13 560.63 412.14 C 557.02 412.11 553.40 412.11 549.79 412.11 C 549.63 426.07 549.66 440.03 549.78 453.99 C 553.54 454.01 557.30 454.01 561.07 453.98 C 561.23 446.63 561.00 439.28 561.13 431.93 C 561.25 428.84 561.60 425.26 564.21 423.19 C 567.03 421.06 570.78 421.48 574.11 421.46 C 574.15 418.16 574.15 414.87 574.12 411.58 C 571.62 411.63 568.97 411.38 566.65 412.48 M 662.92 413.90 C 657.32 416.97 654.12 423.17 653.45 429.37 C 652.50 436.94 654.17 445.62 660.41 450.62 C 667.52 456.12 678.08 456.13 685.76 451.77 C 689.78 449.64 691.75 445.35 693.16 441.25 C 689.13 441.24 684.42 440.14 681.17 443.20 C 678.24 445.83 674.16 447.36 670.35 445.68 C 666.06 444.39 665.02 439.65 663.99 435.89 C 673.71 435.42 683.45 435.81 693.18 435.71 C 693.48 429.40 692.73 422.55 688.39 417.61 C 682.26 410.46 670.92 409.47 662.92 413.90 M 802.29 414.27 C 796.78 417.61 793.86 423.99 793.36 430.24 C 792.59 437.78 794.55 446.37 800.97 451.06 C 808.30 456.21 818.85 456.06 826.38 451.37 C 830.08 449.20 831.78 445.10 833.16 441.25 C 829.12 441.24 824.42 440.14 821.16 443.20 C 818.23 445.82 814.16 447.36 810.35 445.67 C 806.06 444.39 805.02 439.65 804.00 435.89 C 813.71 435.42 823.45 435.81 833.17 435.71 C 833.61 428.72 832.39 420.97 826.91 416.08 C 820.30 410.19 809.75 409.77 802.29 414.27 M 539.02 677.02 C 538.97 684.34 538.97 691.66 539.02 698.98 C 549.01 699.02 558.99 699.02 568.98 698.98 C 569.02 691.66 569.03 684.34 568.98 677.02 C 558.99 676.98 549.01 676.98 539.02 677.02 M 581.02 677.02 C 580.97 684.34 580.97 691.66 581.02 698.98 C 591.01 699.02 600.99 699.02 610.98 698.98 C 611.02 691.66 611.02 684.34 610.98 677.02 C 600.99 676.98 591.01 676.98 581.02 677.02 M 623.02 677.02 C 622.97 684.34 622.97 691.66 623.02 698.98 C 633.01 699.02 642.99 699.02 652.98 698.98 C 653.02 691.66 653.02 684.34 652.98 677.02 C 642.99 676.98 633.01 676.98 623.02 677.02 M 665.02 677.02 C 664.97 684.34 664.97 691.66 665.02 698.98 C 675.01 699.02 684.99 699.02 694.98 698.98 C 695.02 691.66 695.02 684.34 694.98 677.02 C 684.99 676.98 675.01 676.98 665.02 677.02 M 707.02 677.02 C 706.97 684.34 706.97 691.66 707.02 698.98 C 717.00 699.02 726.99 699.02 736.98 698.98 C 737.03 691.66 737.02 684.34 736.98 677.02 C 726.99 676.98 717.01 676.98 707.02 677.02 M 766.02 677.02 C 765.97 684.34 765.97 691.66 766.02 698.98 C 797.67 699.01 829.32 699.02 860.98 698.98 C 861.02 691.66 861.02 684.34 860.98 677.02 C 829.32 676.99 797.67 676.99 766.02 677.02 M 551.35 705.31 C 544.23 706.46 541.66 716.42 546.77 721.23 C 551.58 726.33 561.54 723.77 562.69 716.65 C 564.54 710.08 557.91 703.47 551.35 705.31 M 593.35 705.31 C 586.23 706.46 583.66 716.42 588.77 721.23 C 593.58 726.33 603.54 723.77 604.69 716.65 C 606.53 710.08 599.91 703.47 593.35 705.31 M 635.35 705.31 C 628.23 706.47 625.67 716.42 630.77 721.23 C 635.57 726.33 645.53 723.77 646.69 716.65 C 648.53 710.08 641.91 703.47 635.35 705.31 M 677.35 705.31 C 670.23 706.46 667.67 716.42 672.77 721.23 C 677.58 726.33 687.54 723.77 688.69 716.65 C 690.53 710.08 683.92 703.46 677.35 705.31 M 719.35 705.31 C 712.23 706.46 709.66 716.42 714.77 721.23 C 719.58 726.33 729.53 723.77 730.69 716.65 C 732.53 710.08 725.91 703.48 719.35 705.31 M 767.32 707.89 C 768.30 711.92 769.31 715.94 770.29 719.98 C 770.87 719.96 772.03 719.92 772.61 719.90 C 773.23 717.43 773.87 714.96 774.57 712.52 C 775.49 714.99 776.12 717.59 777.26 719.98 C 777.66 720.00 778.47 720.03 778.87 720.04 C 780.43 716.00 781.28 711.71 781.95 707.45 C 778.24 708.69 778.95 713.20 777.79 716.24 C 776.88 713.15 776.68 709.62 774.29 707.21 C 773.17 710.18 772.42 713.27 771.49 716.31 C 770.88 713.58 770.35 710.85 769.84 708.12 C 769.21 708.06 767.95 707.95 767.32 707.89 M 783.27 707.88 C 783.26 711.99 783.25 716.09 783.30 720.20 C 783.73 720.05 784.60 719.75 785.04 719.59 C 785.88 717.57 787.53 716.29 789.53 715.50 C 792.62 714.53 792.35 709.59 789.58 708.42 C 787.51 707.89 785.36 707.99 783.27 707.88 M 793.55 713.25 C 795.70 714.76 798.65 715.29 799.75 717.98 C 797.27 717.79 794.82 717.35 792.37 717.06 C 794.09 720.55 800.07 721.61 801.73 717.60 C 803.12 712.96 796.02 713.88 795.24 709.97 C 797.56 710.27 799.84 710.77 802.15 711.22 C 800.84 709.55 799.48 707.35 797.02 707.87 C 794.26 707.69 792.13 710.81 793.55 713.25 M 805.59 710.66 C 804.32 714.71 803.16 718.83 802.68 723.06 C 806.85 719.10 806.85 712.62 808.22 707.34 C 807.01 708.14 805.88 709.16 805.59 710.66 M 809.26 707.89 C 809.26 711.93 809.26 715.98 809.27 720.03 C 809.78 720.00 810.81 719.96 811.32 719.94 C 811.69 718.34 812.09 716.74 812.54 715.17 C 814.08 717.15 815.54 719.27 817.68 720.69 C 817.40 719.06 816.94 717.50 816.76 715.88 C 817.01 714.03 817.87 712.27 817.76 710.39 C 816.32 707.10 812.09 708.27 809.26 707.89 M 819.63 707.96 C 819.58 711.98 819.58 716.01 819.63 720.04 C 822.33 720.02 825.05 719.99 827.76 719.76 C 826.60 717.64 824.01 718.07 822.00 717.73 C 821.99 717.10 821.97 715.86 821.96 715.23 C 823.88 714.99 825.80 714.73 827.72 714.38 C 826.01 713.24 823.97 712.95 822.00 712.67 C 822.00 712.10 821.99 710.96 821.99 710.40 C 824.01 710.01 826.57 710.32 827.77 708.25 C 825.05 708.00 822.34 707.97 819.63 707.96 M 828.83 711.09 C 828.45 715.16 834.41 714.40 835.56 717.86 C 833.05 717.77 830.58 717.39 828.10 717.14 C 829.85 720.66 836.09 721.57 837.46 717.35 C 838.48 713.50 833.32 713.11 830.92 711.86 C 831.23 711.32 831.85 710.23 832.16 709.68 C 833.86 710.38 835.54 711.14 837.25 711.87 C 836.97 710.71 836.69 709.55 836.43 708.41 C 833.72 707.94 829.19 707.21 828.83 711.09 M 838.95 707.98 C 838.93 711.99 838.93 716.01 838.95 720.04 C 841.66 720.03 844.38 719.96 847.10 719.70 C 845.62 717.92 843.25 717.94 841.18 717.61 C 841.17 717.03 841.16 715.88 841.16 715.30 C 843.06 715.04 844.95 714.77 846.86 714.43 C 845.20 713.19 843.16 712.90 841.19 712.58 C 841.19 712.06 841.18 711.02 841.18 710.50 C 842.83 709.80 846.18 710.69 846.16 708.26 C 843.76 707.86 841.34 707.99 838.95 707.98 M 847.71 708.94 C 848.40 709.92 849.40 710.53 850.70 710.77 C 850.60 713.84 850.61 716.92 850.63 720.00 C 851.22 720.01 852.39 720.01 852.98 720.01 C 852.99 716.90 853.01 713.79 853.04 710.69 C 854.39 709.93 855.72 709.15 857.01 708.29 C 854.05 708.50 850.03 706.80 847.71 708.94 Z" />
<path   d=" M 230.28 183.86 C 233.29 183.44 236.50 183.42 238.59 186.01 C 236.01 188.08 232.79 188.13 229.73 187.29 C 229.86 186.43 230.14 184.72 230.28 183.86 Z" />
<path   d=" M 230.29 210.84 C 233.12 210.48 235.97 210.74 238.53 212.08 C 236.69 215.46 232.92 215.10 229.73 214.29 C 229.87 213.43 230.15 211.70 230.29 210.84 Z" />
<path   d=" M 230.17 231.19 C 230.86 231.15 232.23 231.07 232.92 231.03 C 233.24 232.13 233.56 233.23 233.88 234.34 C 232.62 234.54 231.36 234.73 230.10 234.92 C 230.12 233.67 230.14 232.43 230.17 231.19 Z" />
<path   d=" M 232.54 297.96 C 232.69 295.19 235.39 295.48 237.43 295.44 C 237.32 296.39 237.11 298.31 237.00 299.27 C 235.50 298.87 234.00 298.49 232.54 297.96 Z" />
<path   d=" M 233.05 306.26 C 234.10 304.99 236.07 305.71 237.52 305.45 C 237.33 306.37 236.97 308.22 236.79 309.14 C 235.28 308.43 231.47 308.81 233.05 306.26 Z" />
<path   d=" M 229.58 329.07 C 232.62 328.45 235.76 328.55 238.53 330.10 C 237.07 332.10 234.85 333.60 232.28 332.82 C 230.11 332.97 230.03 330.58 229.58 329.07 Z" />
<path   d=" M 177.83 373.83 C 181.78 367.96 192.79 368.77 195.11 375.77 C 196.41 379.89 195.95 384.29 195.97 388.55 C 189.32 388.49 182.67 388.49 176.03 388.55 C 176.12 383.65 175.20 378.24 177.83 373.83 Z" />
<path   d=" M 666.84 422.82 C 670.03 418.82 676.99 418.77 680.16 422.82 C 681.30 424.56 681.71 426.63 682.33 428.59 C 676.41 428.78 670.49 428.78 664.58 428.59 C 665.21 426.63 665.61 424.52 666.84 422.82 Z" />
<path   d=" M 806.84 422.82 C 810.04 418.83 816.99 418.77 820.16 422.82 C 821.30 424.55 821.71 426.63 822.33 428.58 C 816.41 428.78 810.50 428.78 804.59 428.59 C 805.21 426.63 805.61 424.51 806.84 422.82 Z" />
<path   d=" M 624.37 421.31 C 627.93 419.80 632.57 420.98 634.58 424.40 C 637.02 428.45 637.28 433.54 636.15 438.06 C 635.30 442.27 631.57 446.03 627.03 445.38 C 621.17 445.17 618.55 438.78 618.46 433.73 C 618.39 429.10 619.71 423.36 624.37 421.31 Z" />
<path   d=" M 715.45 421.42 C 719.21 419.64 724.20 420.99 726.25 424.71 C 729.09 429.73 728.99 436.30 726.32 441.37 C 723.52 446.84 714.41 446.73 711.83 441.10 C 708.76 434.93 708.97 425.31 715.45 421.42 Z" />
<path   d=" M 762.44 421.42 C 766.21 419.65 771.21 420.99 773.25 424.71 C 776.09 429.73 776.00 436.30 773.33 441.37 C 770.52 446.84 761.41 446.73 758.83 441.10 C 755.76 434.92 755.97 425.31 762.44 421.42 Z" />
<path   d=" M 854.44 421.41 C 858.21 419.64 863.20 421.00 865.25 424.71 C 868.09 429.72 867.99 436.30 865.32 441.37 C 862.52 446.84 853.41 446.73 850.83 441.10 C 847.76 434.93 847.97 425.31 854.44 421.41 Z" />
<path   d=" M 518.21 437.23 C 522.33 435.51 526.93 435.94 531.30 435.74 C 530.72 438.64 530.77 442.16 528.21 444.16 C 525.17 446.58 520.27 447.31 517.06 444.82 C 514.54 442.80 515.23 438.43 518.21 437.23 Z" />
</g>
<g id="#0000003b">
<path fill="#000000" opacity="0.23" d=" M 929.27 157.00 C 929.22 151.61 929.15 146.22 929.52 140.84 C 929.79 338.24 929.53 535.65 929.65 733.05 C 929.91 740.00 926.19 746.68 920.19 750.18 C 912.82 755.30 903.46 754.11 895.00 754.18 C 635.31 754.16 375.61 754.18 115.92 754.17 C 113.93 754.23 111.95 753.76 110.73 752.08 C 206.49 752.31 302.25 752.11 398.00 752.17 C 568.02 752.17 738.04 752.18 908.05 752.17 C 912.33 752.08 916.78 751.07 920.20 748.36 C 922.77 746.44 925.02 744.03 926.42 741.12 C 926.63 740.64 927.04 739.68 927.24 739.20 C 927.41 738.66 927.76 737.59 927.93 737.05 C 930.02 731.25 929.26 725.02 929.27 719.00 C 929.28 531.67 929.27 344.33 929.27 157.00 Z" />
</g>
<g id="#aeaeaeff">
<path fill="#aeaeae"  d=" M 233.98 200.23 C 236.18 201.27 235.77 203.87 236.14 205.87 C 235.51 205.93 234.26 206.05 233.63 206.10 C 233.72 204.14 233.82 202.18 233.98 200.23 Z" />
<path fill="#aeaeae"  d=" M 233.98 252.23 C 236.18 253.28 235.77 255.87 236.14 257.87 C 235.51 257.93 234.26 258.05 233.63 258.11 C 233.72 256.14 233.82 254.18 233.98 252.23 Z" />
<path fill="#aeaeae"  d=" M 233.98 278.24 C 236.19 279.27 235.77 281.87 236.13 283.87 C 235.51 283.93 234.26 284.05 233.63 284.11 C 233.72 282.14 233.82 280.18 233.98 278.24 Z" />
</g>
<g id="#b7b7b7ff">
<path fill="#b7b7b7"  d=" M 236.63 264.67 C 237.18 262.71 237.85 260.76 238.98 259.04 C 239.29 261.69 239.37 264.36 239.40 267.03 C 235.70 266.86 231.91 267.60 228.28 266.80 C 228.12 266.34 227.80 265.40 227.64 264.94 C 230.62 264.63 233.63 264.66 236.63 264.67 Z" />
</g>
<g id="#bababaff">
<path fill="#bababa"  d=" M 228.19 268.19 C 229.97 267.51 229.86 270.02 230.60 271.00 C 233.51 270.98 236.42 270.99 239.34 271.00 C 239.33 271.59 239.31 272.77 239.30 273.36 C 236.43 273.37 233.56 273.39 230.70 273.41 C 229.98 274.81 229.24 276.19 228.41 277.52 C 228.08 274.43 227.71 271.28 228.19 268.19 Z" />
</g>
<g id="#b6b6b6ff">
<path fill="#b6b6b6"  d=" M 227.50 348.15 C 231.44 347.94 235.38 347.99 239.33 347.99 C 239.32 348.60 239.32 349.82 239.32 350.43 C 236.43 350.41 233.55 350.40 230.66 350.28 C 230.97 351.51 231.26 352.74 231.52 353.99 C 229.42 352.64 228.14 350.52 227.50 348.15 Z" />
</g>
<g id="#616161ff">
<path fill="#616161"  d=" M 607.06 397.75 C 610.77 397.64 614.49 397.64 618.20 397.75 C 618.49 404.77 618.45 411.79 618.21 418.81 C 620.68 416.36 623.09 413.59 626.46 412.39 C 632.47 410.26 639.90 412.01 643.86 417.15 C 647.89 422.24 648.85 429.05 648.52 435.37 C 648.17 440.84 646.63 446.63 642.48 450.48 C 637.93 454.90 630.58 455.83 624.91 453.12 C 622.23 451.75 620.28 449.39 618.25 447.25 C 618.20 449.49 618.13 451.73 618.07 453.98 C 614.39 454.03 610.72 454.02 607.05 453.98 C 606.93 435.23 606.91 416.49 607.06 397.75 M 624.37 421.31 C 619.71 423.36 618.39 429.10 618.46 433.73 C 618.55 438.78 621.17 445.17 627.03 445.38 C 631.57 446.03 635.30 442.27 636.15 438.06 C 637.28 433.54 637.02 428.45 634.58 424.40 C 632.57 420.98 627.93 419.80 624.37 421.31 Z" />
<path fill="#616161"  d=" M 728.29 397.87 C 732.10 397.62 735.93 397.61 739.75 397.82 C 739.77 416.53 739.75 435.24 739.77 453.94 C 735.99 454.02 732.22 454.00 728.45 453.86 C 728.37 451.97 728.29 450.09 728.21 448.21 C 725.25 450.76 722.21 453.65 718.21 454.33 C 711.19 455.79 703.48 451.99 700.69 445.32 C 697.34 437.62 697.28 428.38 700.72 420.71 C 703.61 414.20 711.14 410.37 718.10 411.76 C 722.18 412.43 725.22 415.45 728.23 418.03 C 728.39 411.31 728.33 404.59 728.29 397.87 M 715.45 421.42 C 708.97 425.31 708.76 434.93 711.83 441.10 C 714.41 446.73 723.52 446.84 726.32 441.37 C 728.99 436.30 729.09 429.73 726.25 424.71 C 724.20 420.99 719.21 419.64 715.45 421.42 Z" />
<path fill="#616161"  d=" M 775.29 397.87 C 779.11 397.62 782.93 397.61 786.76 397.82 C 786.77 416.53 786.75 435.24 786.76 453.94 C 782.99 454.01 779.22 454.00 775.45 453.86 C 775.37 451.97 775.29 450.09 775.21 448.21 C 772.25 450.76 769.21 453.65 765.21 454.33 C 758.19 455.79 750.48 451.99 747.69 445.31 C 744.34 437.62 744.29 428.38 747.72 420.71 C 750.60 414.19 758.14 410.37 765.10 411.76 C 769.18 412.43 772.22 415.45 775.23 418.03 C 775.40 411.31 775.33 404.59 775.29 397.87 M 762.44 421.42 C 755.97 425.31 755.76 434.92 758.83 441.10 C 761.41 446.73 770.52 446.84 773.33 441.37 C 776.00 436.30 776.09 429.73 773.25 424.71 C 771.21 420.99 766.21 419.65 762.44 421.42 Z" />
<path fill="#616161"  d=" M 867.29 397.87 C 871.10 397.62 874.93 397.60 878.75 397.82 C 878.78 416.53 878.74 435.24 878.77 453.94 C 874.99 454.02 871.22 454.00 867.45 453.86 C 867.37 451.97 867.29 450.09 867.21 448.21 C 864.08 450.95 860.75 454.00 856.42 454.47 C 849.60 455.52 842.38 451.72 839.69 445.31 C 836.34 437.62 836.29 428.37 839.73 420.70 C 842.60 414.19 850.14 410.37 857.10 411.76 C 861.18 412.43 864.22 415.45 867.23 418.04 C 867.39 411.31 867.33 404.59 867.29 397.87 M 854.44 421.41 C 847.97 425.31 847.76 434.93 850.83 441.10 C 853.41 446.73 862.52 446.84 865.32 441.37 C 867.99 436.30 868.09 429.72 865.25 424.71 C 863.20 421.00 858.21 419.64 854.44 421.41 Z" />
<path fill="#616161"  d=" M 662.92 413.90 C 670.92 409.47 682.26 410.46 688.39 417.61 C 692.73 422.55 693.48 429.40 693.18 435.71 C 683.45 435.81 673.71 435.42 663.99 435.89 C 665.02 439.65 666.06 444.39 670.35 445.68 C 674.16 447.36 678.24 445.83 681.17 443.20 C 684.42 440.14 689.13 441.24 693.16 441.25 C 691.75 445.35 689.78 449.64 685.76 451.77 C 678.08 456.13 667.52 456.12 660.41 450.62 C 654.17 445.62 652.50 436.94 653.45 429.37 C 654.12 423.17 657.32 416.97 662.92 413.90 M 666.84 422.82 C 665.61 424.52 665.21 426.63 664.58 428.59 C 670.49 428.78 676.41 428.78 682.33 428.59 C 681.71 426.63 681.30 424.56 680.16 422.82 C 676.99 418.77 670.03 418.82 666.84 422.82 Z" />
<path fill="#616161"  d=" M 802.29 414.27 C 809.75 409.77 820.30 410.19 826.91 416.08 C 832.39 420.97 833.61 428.72 833.17 435.71 C 823.45 435.81 813.71 435.42 804.00 435.89 C 805.02 439.65 806.06 444.39 810.35 445.67 C 814.16 447.36 818.23 445.82 821.16 443.20 C 824.42 440.14 829.12 441.24 833.16 441.25 C 831.78 445.10 830.08 449.20 826.38 451.37 C 818.85 456.06 808.30 456.21 800.97 451.06 C 794.55 446.37 792.59 437.78 793.36 430.24 C 793.86 423.99 796.78 417.61 802.29 414.27 M 806.84 422.82 C 805.61 424.51 805.21 426.63 804.59 428.59 C 810.50 428.78 816.41 428.78 822.33 428.58 C 821.71 426.63 821.30 424.55 820.16 422.82 C 816.99 418.77 810.04 418.83 806.84 422.82 Z" />
</g>
<g fill="#8ab224">
<path   d=" M 581.96 402.41 C 585.61 402.44 589.27 402.44 592.94 402.40 C 593.09 405.58 593.18 408.77 593.25 411.96 C 595.80 412.05 598.36 412.13 600.92 412.22 C 600.90 415.02 600.89 417.83 600.88 420.64 C 598.31 420.71 595.75 420.78 593.19 420.87 C 593.31 427.84 592.80 434.84 593.39 441.79 C 593.46 445.63 598.16 445.12 600.83 445.73 C 600.84 448.45 600.84 451.18 600.83 453.91 C 595.84 454.06 590.36 454.77 585.85 452.13 C 582.69 450.30 581.88 446.42 581.79 443.05 C 581.58 435.72 581.84 428.38 581.74 421.05 C 579.81 420.87 577.87 420.71 575.95 420.55 C 575.90 417.79 575.88 415.03 575.88 412.27 C 577.81 412.13 579.74 411.99 581.68 411.85 C 581.73 408.70 581.81 405.55 581.96 402.41 Z" />
<path   d=" M 397.77 416.80 C 401.24 412.74 406.84 411.34 412.00 411.25 C 417.24 411.17 422.94 412.40 426.69 416.33 C 428.96 418.60 429.61 421.87 430.40 424.87 C 427.35 424.95 424.28 425.26 421.26 424.78 C 418.64 423.51 417.46 420.06 414.42 419.47 C 411.93 419.01 409.01 419.29 407.13 421.14 C 405.45 422.75 405.80 425.98 408.04 426.90 C 414.66 430.05 423.09 429.01 428.70 434.29 C 433.44 439.59 431.03 448.68 424.95 451.91 C 417.70 455.91 408.26 455.89 400.92 452.11 C 396.76 450.04 394.78 445.62 393.75 441.33 C 397.05 441.27 400.38 440.96 403.65 441.46 C 406.38 442.90 407.86 446.46 411.22 446.74 C 413.84 447.02 416.92 446.83 418.88 444.84 C 420.46 443.19 420.00 440.07 417.75 439.26 C 411.93 436.66 405.00 437.08 399.65 433.33 C 394.33 429.78 393.61 421.51 397.77 416.80 Z" />
<path   d=" M 447.84 418.93 C 450.83 414.41 455.72 410.56 461.47 411.50 C 466.33 411.62 469.78 415.41 471.64 419.56 C 473.60 416.94 475.56 414.05 478.67 412.71 C 484.09 410.36 491.28 411.08 495.24 415.80 C 497.95 418.82 498.59 423.01 498.58 426.93 C 498.61 435.92 498.49 444.92 498.62 453.91 C 494.79 454.00 490.97 454.01 487.14 453.98 C 487.07 445.97 487.23 437.96 487.14 429.94 C 486.98 427.30 487.00 424.15 484.81 422.27 C 481.01 419.18 474.17 421.24 473.52 426.37 C 472.52 435.52 473.46 444.79 473.07 453.99 C 469.42 454.00 465.78 454.00 462.14 453.97 C 462.07 445.96 462.22 437.95 462.15 429.94 C 462.03 427.09 461.97 423.52 459.23 421.84 C 455.01 419.14 448.64 422.01 448.39 427.18 C 447.67 436.08 448.39 445.05 448.07 453.98 C 444.30 454.01 440.54 454.01 436.77 453.98 C 436.66 440.03 436.63 426.07 436.79 412.11 C 440.42 412.11 444.04 412.11 447.67 412.14 C 447.71 414.40 447.77 416.67 447.84 418.93 Z" />
<path   d=" M 510.59 415.59 C 516.19 411.01 524.12 410.46 530.93 412.04 C 536.56 413.31 541.77 417.92 542.00 423.98 C 542.43 433.97 542.09 443.99 542.12 453.99 C 538.48 454.00 534.84 454.00 531.21 453.98 C 531.15 452.01 531.09 450.05 531.03 448.10 C 528.79 450.21 526.55 452.54 523.59 453.61 C 517.81 455.73 510.44 454.49 506.59 449.42 C 502.57 444.31 503.51 435.69 509.37 432.35 C 515.95 428.49 523.92 429.40 531.23 428.63 C 530.83 426.50 530.83 424.21 529.75 422.29 C 528.03 419.94 524.75 419.53 522.07 419.94 C 519.03 420.47 517.48 423.62 514.79 424.79 C 511.78 425.25 508.73 424.94 505.71 424.85 C 506.67 421.49 507.69 417.83 510.59 415.59 M 518.21 437.23 C 515.23 438.43 514.54 442.80 517.06 444.82 C 520.27 447.31 525.17 446.58 528.21 444.16 C 530.77 442.16 530.72 438.64 531.30 435.74 C 526.93 435.94 522.33 435.51 518.21 437.23 Z" />
<path   d=" M 566.65 412.48 C 568.97 411.38 571.62 411.63 574.12 411.58 C 574.15 414.87 574.15 418.16 574.11 421.46 C 570.78 421.48 567.03 421.06 564.21 423.19 C 561.60 425.26 561.25 428.84 561.13 431.93 C 561.00 439.28 561.23 446.63 561.07 453.98 C 557.30 454.01 553.54 454.01 549.78 453.99 C 549.66 440.03 549.63 426.07 549.79 412.11 C 553.40 412.11 557.02 412.11 560.63 412.14 C 560.71 414.13 560.79 416.12 560.90 418.11 C 562.66 416.10 564.23 413.77 566.65 412.48 Z" />
<path   d=" M 539.02 677.02 C 549.01 676.98 558.99 676.98 568.98 677.02 C 569.03 684.34 569.02 691.66 568.98 698.98 C 558.99 699.02 549.01 699.02 539.02 698.98 C 538.97 691.66 538.97 684.34 539.02 677.02 Z" />
<path   d=" M 581.02 677.02 C 591.01 676.98 600.99 676.98 610.98 677.02 C 611.02 684.34 611.02 691.66 610.98 698.98 C 600.99 699.02 591.01 699.02 581.02 698.98 C 580.97 691.66 580.97 684.34 581.02 677.02 Z" />
<path   d=" M 623.02 677.02 C 633.01 676.98 642.99 676.98 652.98 677.02 C 653.02 684.34 653.02 691.66 652.98 698.98 C 642.99 699.02 633.01 699.02 623.02 698.98 C 622.97 691.66 622.97 684.34 623.02 677.02 Z" />
<path   d=" M 665.02 677.02 C 675.01 676.98 684.99 676.98 694.98 677.02 C 695.02 684.34 695.02 691.66 694.98 698.98 C 684.99 699.02 675.01 699.02 665.02 698.98 C 664.97 691.66 664.97 684.34 665.02 677.02 Z" />
<path   d=" M 707.02 677.02 C 717.01 676.98 726.99 676.98 736.98 677.02 C 737.02 684.34 737.03 691.66 736.98 698.98 C 726.99 699.02 717.00 699.02 707.02 698.98 C 706.97 691.66 706.97 684.34 707.02 677.02 Z" />
<path   d=" M 766.02 677.02 C 797.67 676.99 829.32 676.99 860.98 677.02 C 861.02 684.34 861.02 691.66 860.98 698.98 C 829.32 699.02 797.67 699.01 766.02 698.98 C 765.97 691.66 765.97 684.34 766.02 677.02 Z" />
</g>
<g id="#535353ff">
<path fill="#535353"  d=" M 551.35 705.31 C 557.91 703.47 564.54 710.08 562.69 716.65 C 561.54 723.77 551.58 726.33 546.77 721.23 C 541.66 716.42 544.23 706.46 551.35 705.31 Z" />
<path fill="#535353"  d=" M 593.35 705.31 C 599.91 703.47 606.53 710.08 604.69 716.65 C 603.54 723.77 593.58 726.33 588.77 721.23 C 583.66 716.42 586.23 706.46 593.35 705.31 Z" />
<path fill="#535353"  d=" M 635.35 705.31 C 641.91 703.47 648.53 710.08 646.69 716.65 C 645.53 723.77 635.57 726.33 630.77 721.23 C 625.67 716.42 628.23 706.47 635.35 705.31 Z" />
<path fill="#535353"  d=" M 677.35 705.31 C 683.92 703.46 690.53 710.08 688.69 716.65 C 687.54 723.77 677.58 726.33 672.77 721.23 C 667.67 716.42 670.23 706.46 677.35 705.31 Z" />
<path fill="#535353"  d=" M 719.35 705.31 C 725.91 703.48 732.53 710.08 730.69 716.65 C 729.53 723.77 719.58 726.33 714.77 721.23 C 709.66 716.42 712.23 706.46 719.35 705.31 Z" />
</g>
<g id="#bdbdbdff">
<path fill="#bdbdbd"  d=" M 819.63 707.96 C 822.34 707.97 825.05 708.00 827.77 708.25 C 826.57 710.32 824.01 710.01 821.99 710.40 C 821.99 710.96 822.00 712.10 822.00 712.67 C 823.97 712.95 826.01 713.24 827.72 714.38 C 825.80 714.73 823.88 714.99 821.96 715.23 C 821.97 715.86 821.99 717.10 822.00 717.73 C 824.01 718.07 826.60 717.64 827.76 719.76 C 825.05 719.99 822.33 720.02 819.63 720.04 C 819.58 716.01 819.58 711.98 819.63 707.96 Z" />
</g>
<g id="#bebebeff">
<path fill="#bebebe"  d=" M 838.95 707.98 C 841.34 707.99 843.76 707.86 846.16 708.26 C 846.18 710.69 842.83 709.80 841.18 710.50 C 841.18 711.02 841.19 712.06 841.19 712.58 C 843.16 712.90 845.20 713.19 846.86 714.43 C 844.95 714.77 843.06 715.04 841.16 715.30 C 841.16 715.88 841.17 717.03 841.18 717.61 C 843.25 717.94 845.62 717.92 847.10 719.70 C 844.38 719.96 841.66 720.03 838.95 720.04 C 838.93 716.01 838.93 711.99 838.95 707.98 Z" />
</g>
<g id="#333333ff">
<path fill="#333333"  d=" M 785.82 709.40 C 787.98 709.92 789.13 711.55 789.56 713.66 C 788.56 713.87 786.54 714.31 785.53 714.53 C 785.61 712.81 785.70 711.10 785.82 709.40 Z" />
</g>
<g id="#3c3c3cff">
<path fill="#3c3c3c"  d=" M 811.59 709.86 C 812.51 709.96 814.34 710.16 815.26 710.26 C 815.24 711.38 815.22 712.51 815.20 713.65 C 814.31 713.76 812.53 713.99 811.64 714.10 C 811.61 712.68 811.60 711.26 811.59 709.86 Z" />
</g>
</svg>
